<svg id="Capa_1" data-name="Capa 1" xmlns="http://www.w3.org/2000/svg" viewBox="0 0 190.34 75.66"><defs><style>.cls-1{fill:#fff;}.cls-2{fill:#153c88;}.cls-3{fill:#009fe3;}</style></defs><path class="cls-1" d="M43,31.89l1.77-1a2.36,2.36,0,0,0,2.42,1.61c1.24,0,1.68-.53,1.68-1.11,0-.78-.71-1.08-2.27-1.53s-3.16-1.14-3.16-3.14a3.2,3.2,0,0,1,3.45-3.12,4,4,0,0,1,3.75,2.36l-1.74,1a2.08,2.08,0,0,0-2-1.35c-.87,0-1.38.45-1.38,1.05s.4,1,2,1.47,3.44,1.08,3.44,3.23c0,2-1.58,3.16-3.81,3.16A4.05,4.05,0,0,1,43,31.89Z"/><path class="cls-1" d="M52.1,30.84V23.77h2.06v6.9c0,1,.54,1.79,2,1.79s2-.77,2-1.79v-6.9h2.07v7.07c0,2.26-1.71,3.64-4,3.64S52.1,33.1,52.1,30.84Z"/><path class="cls-1" d="M64.9,31.89l1.77-1a2.35,2.35,0,0,0,2.41,1.61c1.25,0,1.68-.53,1.68-1.11,0-.78-.7-1.08-2.26-1.53s-3.17-1.14-3.17-3.14a3.2,3.2,0,0,1,3.45-3.12,4,4,0,0,1,3.75,2.36l-1.74,1a2.06,2.06,0,0,0-2-1.35c-.87,0-1.38.45-1.38,1.05s.41,1,2,1.47,3.43,1.08,3.43,3.23c0,2-1.57,3.16-3.81,3.16A4,4,0,0,1,64.9,31.89Z"/><path class="cls-1" d="M80.64,32.29v2H74.15V23.77h6.42v2H76.22V28h4v2h-4v2.35Z"/><path class="cls-1" d="M92.27,29.44a4.86,4.86,0,0,1-5.16,5A5.46,5.46,0,1,1,87,23.56,5.33,5.33,0,0,1,91.56,26l-1.77,1A3.21,3.21,0,0,0,87,25.57a3.45,3.45,0,1,0,.15,6.89,2.91,2.91,0,0,0,3.06-2H87V28.63h5.27Z"/><path class="cls-1" d="M93.51,30.84V23.77h2.06v6.9c0,1,.54,1.79,2,1.79s2-.77,2-1.79v-6.9h2.07v7.07c0,2.26-1.71,3.64-4,3.64S93.51,33.1,93.51,30.84Z"/><path class="cls-1" d="M107,30.63h-1.57v3.64H103.4V23.77h4.2a3.48,3.48,0,0,1,3.49,3.48,3.41,3.41,0,0,1-2,3.06l2.32,4h-2.23Zm-1.57-1.82h2.13A1.49,1.49,0,0,0,109,27.25a1.47,1.47,0,0,0-1.42-1.54h-2.13Z"/><path class="cls-1" d="M114.62,23.77v10.5h-2.07V23.77Z"/><path class="cls-1" d="M125.74,29a5.05,5.05,0,0,1-5.06,5.25h-4.17V23.77h4.17A5.06,5.06,0,0,1,125.74,29Zm-2,0a3,3,0,0,0-3.08-3.27h-2.1v6.54h2.1A3,3,0,0,0,123.76,29Z"/><path class="cls-1" d="M132.74,32.38h-4.18l-.63,1.89h-2.24l3.68-10.5h2.56l3.69,10.5h-2.25Zm-.64-1.93-1.44-4.29-1.44,4.29Z"/><path class="cls-1" d="M145.67,29a5.05,5.05,0,0,1-5,5.25h-4.17V23.77h4.17A5.06,5.06,0,0,1,145.67,29Zm-2,0a3,3,0,0,0-3.07-3.27h-2.1v6.54h2.1A3,3,0,0,0,143.69,29Z"/><path class="cls-1" d="M51.68,38.37v10.5H50.1l-4.5-6.42v6.42H43.53V38.37h1.58l4.5,6.41V38.37Z"/><path class="cls-1" d="M53.54,45.44V38.37h2.05v6.9c0,1,.54,1.79,1.95,1.79s2-.77,2-1.79v-6.9h2.07v7.07c0,2.26-1.71,3.64-4,3.64S53.54,47.7,53.54,45.44Z"/><path class="cls-1" d="M69.92,46.89v2h-6.5V38.37h6.42v2H65.49v2.24h4v1.95h-4v2.35Z"/><path class="cls-1" d="M70.73,46.49l1.77-1a2.35,2.35,0,0,0,2.41,1.61c1.25,0,1.68-.53,1.68-1.11,0-.78-.7-1.08-2.26-1.53s-3.17-1.14-3.17-3.14a3.2,3.2,0,0,1,3.45-3.12,4,4,0,0,1,3.75,2.36l-1.74,1a2.06,2.06,0,0,0-2-1.35c-.87,0-1.38.45-1.38,1s.41,1,2,1.47,3.43,1.08,3.43,3.23c0,2-1.57,3.16-3.81,3.16A4,4,0,0,1,70.73,46.49Z"/><path class="cls-1" d="M86.83,40.35H84v8.52H81.93V40.35H79.11v-2h7.72Z"/><path class="cls-1" d="M91.37,45.23H89.79v3.64H87.72V38.37h4.2a3.49,3.49,0,0,1,3.5,3.48,3.42,3.42,0,0,1-2,3.06l2.32,4H93.48Zm-1.58-1.82h2.13a1.49,1.49,0,0,0,1.42-1.56,1.47,1.47,0,0,0-1.42-1.54H89.79Z"/><path class="cls-1" d="M103.22,47H99l-.63,1.89H96.17l3.68-10.5h2.57l3.68,10.5h-2.25Zm-.64-1.93-1.44-4.29L99.7,45.05Z"/><path class="cls-1" d="M118.08,41.9a3.52,3.52,0,0,1-3.59,3.52h-1.84v3.45h-2.07V38.37h3.91A3.52,3.52,0,0,1,118.08,41.9Zm-2.06,0a1.51,1.51,0,0,0-1.53-1.59h-1.84v3.18h1.84A1.53,1.53,0,0,0,116,41.9Z"/><path class="cls-1" d="M122.79,45.23h-1.57v3.64h-2.07V38.37h4.2a3.48,3.48,0,0,1,3.49,3.48,3.41,3.41,0,0,1-2,3.06l2.32,4h-2.23Zm-1.57-1.82h2.13a1.49,1.49,0,0,0,1.42-1.56,1.47,1.47,0,0,0-1.42-1.54h-2.13Z"/><path class="cls-1" d="M130.37,38.37v10.5H128.3V38.37Z"/><path class="cls-1" d="M131.72,43.62a5.45,5.45,0,1,1,5.44,5.46A5.4,5.4,0,0,1,131.72,43.62Zm8.83,0a3.39,3.39,0,1,0-3.39,3.44A3.33,3.33,0,0,0,140.55,43.62Z"/><path class="cls-1" d="M147.62,45.23H146v3.64H144V38.37h4.2a3.49,3.49,0,0,1,3.5,3.48,3.42,3.42,0,0,1-2,3.06l2.33,4h-2.24ZM146,43.41h2.13a1.49,1.49,0,0,0,1.43-1.56,1.48,1.48,0,0,0-1.43-1.54H146Z"/><path class="cls-1" d="M155.19,38.37v10.5h-2.07V38.37Z"/><path class="cls-1" d="M166.32,43.62a5.05,5.05,0,0,1-5.06,5.25h-4.17V38.37h4.17A5.06,5.06,0,0,1,166.32,43.62Zm-2,0a3,3,0,0,0-3.08-3.27h-2.1v6.54h2.1A3,3,0,0,0,164.34,43.62Z"/><path class="cls-1" d="M173.32,47h-4.19l-.63,1.89h-2.23l3.67-10.5h2.57l3.69,10.5H174Zm-.65-1.93-1.44-4.29-1.44,4.29Z"/><path class="cls-1" d="M186.25,43.62a5.05,5.05,0,0,1-5.05,5.25H177V38.37h4.17A5.06,5.06,0,0,1,186.25,43.62Zm-2,0a3,3,0,0,0-3.07-3.27h-2.1v6.54h2.1A3,3,0,0,0,184.27,43.62Z"/><path class="cls-2" d="M34.35,30.59a7.25,7.25,0,0,1-5.43-12.07,63.93,63.93,0,0,0-8.67-.62A70.86,70.86,0,0,0,4.09,20V39.8c0,7.19,16.16,18,16.16,18S36.42,47,36.42,39.8V30.29A7.1,7.1,0,0,1,34.35,30.59Z"/><path class="cls-1" d="M20.31,44.12l4,1.39-.09-.64-3.07-2.13s.74-7.34.65-7.37l8.41,2.7v-1.4L21.9,30.91c0-5.44-.72-6.91-1.58-6.91s-1.56,1.46-1.64,6.89L10.3,36.54v1.4l8.44-2.59.58,7.38-3.1,2.09-.09.64Z"/><circle class="cls-3" cx="34.36" cy="23.34" r="5.43"/><polygon class="cls-1" points="37.72 22.41 35.27 22.41 35.27 19.96 33.42 19.96 33.42 22.41 30.98 22.41 30.98 24.26 33.42 24.26 33.42 26.71 35.27 26.71 35.27 24.26 37.72 24.26 37.72 22.41"/></svg>