<svg id="Capa_1" data-name="Capa 1" xmlns="http://www.w3.org/2000/svg" viewBox="0 0 172.6 75.66"><defs><style>.cls-1{fill:#fff;}.cls-2{fill:#153c88;}.cls-3{fill:#009fe3;}</style></defs><path class="cls-1" d="M54.13,30.18v4.09H52.08V30.18l-3.59-6.41h2.34l2.28,4.38,2.28-4.38h2.34Z"/><path class="cls-1" d="M57.33,29a5.45,5.45,0,1,1,5.44,5.46A5.4,5.4,0,0,1,57.33,29Zm8.83,0a3.39,3.39,0,1,0-3.39,3.44A3.33,3.33,0,0,0,66.16,29Z"/><path class="cls-1" d="M69.51,30.84V23.77h2v6.9c0,1,.54,1.79,2,1.79s1.95-.77,1.95-1.79v-6.9h2.07v7.07c0,2.26-1.71,3.64-4,3.64S69.51,33.1,69.51,30.84Z"/><path class="cls-1" d="M83,30.63H81.46v3.64H79.39V23.77h4.2a3.49,3.49,0,0,1,3.5,3.48,3.42,3.42,0,0,1-2,3.06l2.33,4H85.15Zm-1.58-1.82h2.13A1.5,1.5,0,0,0,85,27.25a1.48,1.48,0,0,0-1.43-1.54H81.46Z"/><path class="cls-1" d="M91.51,31.89l1.77-1a2.36,2.36,0,0,0,2.42,1.61c1.24,0,1.68-.53,1.68-1.11,0-.78-.71-1.08-2.27-1.53S92,28.68,92,26.68a3.2,3.2,0,0,1,3.45-3.12,4,4,0,0,1,3.75,2.36l-1.74,1a2.08,2.08,0,0,0-2-1.35c-.87,0-1.38.45-1.38,1.05s.4,1,2,1.47,3.44,1.08,3.44,3.23c0,2-1.58,3.16-3.81,3.16A4.05,4.05,0,0,1,91.51,31.89Z"/><path class="cls-1" d="M106.65,32.38h-4.18l-.63,1.89H99.61l3.67-10.5h2.57l3.68,10.5h-2.25ZM106,30.45l-1.44-4.29-1.44,4.29Z"/><path class="cls-1" d="M112.43,25.75v2.49h4.08v2h-4.08v4.05h-2.07V23.77h6.27v2Z"/><path class="cls-1" d="M124.53,32.29v2H118V23.77h6.42v2H120.1V28h4v2h-4v2.35Z"/><path class="cls-1" d="M132.86,25.75H130v8.52H128V25.75h-2.81v-2h7.72Z"/><path class="cls-1" d="M138.92,30.18v4.09h-2V30.18l-3.59-6.41h2.34l2.28,4.38,2.28-4.38h2.34Z"/><path class="cls-1" d="M51.49,38.37v10.5H49.42V38.37Z"/><path class="cls-1" d="M52.75,46.49l1.78-1a2.34,2.34,0,0,0,2.41,1.61c1.25,0,1.68-.53,1.68-1.11,0-.78-.71-1.08-2.26-1.53s-3.17-1.14-3.17-3.14a3.2,3.2,0,0,1,3.45-3.12,4,4,0,0,1,3.75,2.36l-1.74,1a2.07,2.07,0,0,0-2-1.35c-.87,0-1.38.45-1.38,1s.4,1,2,1.47,3.44,1.08,3.44,3.23c0,2-1.58,3.16-3.81,3.16A4.05,4.05,0,0,1,52.75,46.49Z"/><path class="cls-1" d="M65,43.62a5.45,5.45,0,1,1,5.44,5.46A5.4,5.4,0,0,1,65,43.62Zm8.83,0a3.39,3.39,0,1,0-3.39,3.44A3.33,3.33,0,0,0,73.84,43.62Z"/><path class="cls-1" d="M77.19,45.44V38.37h2v6.9c0,1,.54,1.79,2,1.79s2-.77,2-1.79v-6.9h2.07v7.07c0,2.26-1.71,3.64-4,3.64S77.19,47.7,77.19,45.44Z"/><path class="cls-1" d="M90.72,45.23H89.14v3.64H87.07V38.37h4.2a3.49,3.49,0,0,1,3.5,3.48,3.42,3.42,0,0,1-2,3.06l2.33,4H92.83Zm-1.58-1.82h2.13a1.5,1.5,0,0,0,1.43-1.56,1.48,1.48,0,0,0-1.43-1.54H89.14Z"/><path class="cls-1" d="M107.23,41.9a3.51,3.51,0,0,1-3.58,3.52H101.8v3.45H99.73V38.37h3.92A3.52,3.52,0,0,1,107.23,41.9Zm-2,0a1.51,1.51,0,0,0-1.53-1.59H101.8v3.18h1.85A1.53,1.53,0,0,0,105.18,41.9Z"/><path class="cls-1" d="M112,45.23h-1.57v3.64h-2.07V38.37h4.2A3.48,3.48,0,0,1,116,41.85a3.41,3.41,0,0,1-2,3.06l2.32,4h-2.23Zm-1.57-1.82h2.13a1.49,1.49,0,0,0,1.42-1.56,1.47,1.47,0,0,0-1.42-1.54h-2.13Z"/><path class="cls-1" d="M119.52,38.37v10.5h-2.07V38.37Z"/><path class="cls-1" d="M120.88,43.62a5.45,5.45,0,1,1,5.44,5.46A5.4,5.4,0,0,1,120.88,43.62Zm8.83,0a3.39,3.39,0,1,0-3.39,3.44A3.33,3.33,0,0,0,129.71,43.62Z"/><path class="cls-1" d="M136.78,45.23H135.2v3.64h-2.07V38.37h4.2a3.49,3.49,0,0,1,3.5,3.48,3.42,3.42,0,0,1-2,3.06l2.33,4h-2.24Zm-1.58-1.82h2.13a1.5,1.5,0,0,0,1.43-1.56,1.48,1.48,0,0,0-1.43-1.54H135.2Z"/><path class="cls-1" d="M144.35,38.37v10.5h-2.07V38.37Z"/><path class="cls-1" d="M153,40.35h-2.83v8.52h-2.07V40.35h-2.82v-2H153Z"/><path class="cls-1" d="M159,44.78v4.09H157V44.78l-3.58-6.41h2.34L158,42.75l2.28-4.38h2.34Z"/><path class="cls-2" d="M40.24,30.59a7.25,7.25,0,0,1-5.43-12.07,63.93,63.93,0,0,0-8.67-.62A70.86,70.86,0,0,0,10,20V39.8c0,7.19,16.16,18,16.16,18S42.31,47,42.31,39.8V30.29A7.1,7.1,0,0,1,40.24,30.59Z"/><path class="cls-1" d="M26.2,44.12l4,1.39-.09-.64L27,42.74s.74-7.34.65-7.37l8.41,2.7v-1.4l-8.31-5.76c0-5.44-.72-6.91-1.58-6.91s-1.56,1.46-1.64,6.89l-8.38,5.65v1.4l8.44-2.59.58,7.38-3.1,2.09-.09.64Z"/><circle class="cls-3" cx="40.25" cy="23.34" r="5.43"/><polygon class="cls-1" points="43.61 22.41 41.16 22.41 41.16 19.96 39.31 19.96 39.31 22.41 36.87 22.41 36.87 24.26 39.31 24.26 39.31 26.71 41.16 26.71 41.16 24.26 43.61 24.26 43.61 22.41"/></svg>