<svg xmlns="http://www.w3.org/2000/svg" width="80.072" height="80.505" viewBox="0 0 80.072 80.505"><defs><style>.a{fill:#ffcc24;stroke:#ffcc24;stroke-width:0.5px;}</style></defs><g transform="translate(0.254 0.251)"><g transform="translate(64.712 19.355)"><path class="a" d="M332.653,97.151a1.434,1.434,0,0,0-1.96-.519l-7,4.048a1.434,1.434,0,1,0,1.442,2.479l7-4.048A1.434,1.434,0,0,0,332.653,97.151Z" transform="translate(-322.978 -96.438)"/></g><g transform="translate(64.712 53.738)"><path class="a" d="M332.135,272l-7-4.048a1.434,1.434,0,0,0-1.442,2.479l7,4.048A1.434,1.434,0,0,0,332.135,272Z" transform="translate(-322.978 -267.758)"/></g><g transform="translate(38.346 68.816)"><path class="a" d="M193.828,342.6a1.441,1.441,0,0,0-1.544,1.331,1.424,1.424,0,0,0,0,.213v8.087a1.442,1.442,0,1,0,2.875.213,1.42,1.42,0,0,0,0-.213v-8.087A1.442,1.442,0,0,0,193.828,342.6Z" transform="translate(-192.28 -342.6)"/></g><g transform="translate(4.986 19.355)"><path class="a" d="M35.415,100.68l-7-4.048a1.434,1.434,0,1,0-1.442,2.479l7,4.048a1.434,1.434,0,0,0,1.442-2.479Z" transform="translate(-26.258 -96.438)"/></g><g transform="translate(38.346)"><path class="a" d="M193.828,0a1.441,1.441,0,0,0-1.544,1.331,1.424,1.424,0,0,0,0,.213V9.635a1.438,1.438,0,1,0,2.875-.008V1.548A1.442,1.442,0,0,0,193.828,0Z" transform="translate(-192.28 0)"/></g><g transform="translate(19.138 5.2)"><path class="a" d="M103.151,33.973l-4.04-7a1.434,1.434,0,1,0-2.479,1.442l4.04,7a1.434,1.434,0,1,0,2.479-1.442Z" transform="translate(-96.438 -26.258)"/></g><g transform="translate(26.907 27.119)"><path class="a" d="M147.946,134.924a1.424,1.424,0,0,0-.213,0,12.792,12.792,0,0,0-12.792,12.792,1.438,1.438,0,1,0,2.875,0,9.909,9.909,0,0,1,9.9-9.917h.016a1.442,1.442,0,0,0,.213-2.875Z" transform="translate(-134.94 -134.92)"/></g><g transform="translate(68.597 38.554)"><path class="a" d="M353.566,193.574a1.442,1.442,0,0,0-1.331-1.331h-8.087a1.442,1.442,0,1,0-.213,2.875,1.427,1.427,0,0,0,.214,0h8.087A1.441,1.441,0,0,0,353.566,193.574Z" transform="translate(-342.6 -192.239)"/></g><g transform="translate(0 38.563)"><path class="a" d="M10.714,192.284a1.424,1.424,0,0,0-.213,0H2.414a1.442,1.442,0,0,0,0,2.875H10.5a1.442,1.442,0,1,0,.213-2.875Z" transform="translate(-1.079 -192.28)"/></g><g transform="translate(18.63 18.844)"><path class="a" d="M113.873,92.7a21.156,21.156,0,1,0,21.153,21.159A21.157,21.157,0,0,0,113.873,92.7Zm12.921,34.107a18.29,18.29,0,0,1-25.853-25.877v.024a18.281,18.281,0,0,1,25.853,25.853Z" transform="translate(-92.714 -92.7)"/></g><g transform="translate(53.514 64.931)"><path class="a" d="M274.442,330.7l0-.006-4.048-7a1.434,1.434,0,1,0-2.479,1.442l4.048,7a1.434,1.434,0,0,0,2.483-1.435Z" transform="translate(-267.717 -322.978)"/></g><g transform="translate(53.559 5.2)"><path class="a" d="M274.148,26.452a1.434,1.434,0,0,0-1.96.519l-4.048,7a1.434,1.434,0,0,0,.511,1.962l0,0h0a1.434,1.434,0,0,0,1.961-.516l0-.006,4.048-7A1.434,1.434,0,0,0,274.148,26.452Z" transform="translate(-267.943 -26.258)"/></g><g transform="translate(19.138 64.931)"><path class="a" d="M102.64,323.172a1.434,1.434,0,0,0-1.96.519l-4.048,7a1.434,1.434,0,0,0,2.479,1.442l4.048-7A1.434,1.434,0,0,0,102.64,323.172Z" transform="translate(-96.438 -322.978)"/></g><g transform="translate(4.986 53.73)"><path class="a" d="M35.933,268.431a1.434,1.434,0,0,0-1.96-.519l-7,4.048a1.434,1.434,0,1,0,1.442,2.479l7-4.048A1.434,1.434,0,0,0,35.933,268.431Z" transform="translate(-26.258 -267.718)"/></g></g></svg>