<svg xmlns="http://www.w3.org/2000/svg" width="89.646" height="70.5" viewBox="0 0 89.646 70.5"><defs><style>.a{fill:#ffcc24;stroke:#1150e5;stroke-width:0.5px;}</style></defs><g transform="translate(0.25 0.25)"><g transform="translate(59.032 25.527)"><path class="a" d="M343.731,201.593h-3.19a1.5,1.5,0,1,0,0,2.992h3.19a1.5,1.5,0,0,0,0-2.992Z" transform="translate(-339.045 -201.593)"/></g><g transform="translate(24.378 36.695)"><g transform="translate(0 0)"><path class="a" d="M179.747,266.925a3.072,3.072,0,0,0-2.437-1.189h-34.2a3.091,3.091,0,0,0-3,3.841l.8,3.191a3.087,3.087,0,0,0,3,2.341h32.608a3.087,3.087,0,0,0,3-2.341l.8-3.191A3.072,3.072,0,0,0,179.747,266.925Zm-2.34,1.927-.8,3.191a.1.1,0,0,1-.1.076H143.9a.1.1,0,0,1-.1-.075l-.8-3.191a.1.1,0,0,1,.1-.124h34.2a.1.1,0,0,1,.1.124Z" transform="translate(-140.014 -265.736)"/></g></g><g transform="translate(0 0)"><path class="a" d="M84.459,83.5a4.687,4.687,0,0,0,0-9.373h-1.6a4.694,4.694,0,0,0-4.627,3.94l-3.99-10.973a6.3,6.3,0,0,0-5.9-4.135H56.967l-.842-4.21a4.7,4.7,0,0,0-4.6-3.768H37.616a4.7,4.7,0,0,0-4.6,3.768l-.842,4.21H20.8a6.3,6.3,0,0,0-5.9,4.135l-3.99,10.973a4.694,4.694,0,0,0-4.627-3.94h-1.6a4.687,4.687,0,1,0,0,9.373h1.6a4.657,4.657,0,0,0,2.055-.476L4.917,87.3a7.905,7.905,0,0,0-1.726,4.921v29.67a3.1,3.1,0,0,0,3.091,3.091h4.786a3.1,3.1,0,0,0,3.091-3.091v-6.482H74.986v6.482a3.1,3.1,0,0,0,3.091,3.091h4.786a3.1,3.1,0,0,0,3.091-3.091V92.219A7.9,7.9,0,0,0,84.228,87.3l-3.42-4.275a4.657,4.657,0,0,0,2.055.476ZM6.282,80.508h-1.6a1.7,1.7,0,0,1,0-3.39h1.6a1.7,1.7,0,0,1,0,3.39ZM35.954,59.335a1.7,1.7,0,0,1,1.662-1.363H51.529a1.7,1.7,0,0,1,1.662,1.363l.725,3.623H35.229ZM11.168,121.89a.1.1,0,0,1-.1.1H6.282a.1.1,0,0,1-.1-.1v-7.415a6.244,6.244,0,0,0,3.291.934h1.7v6.482Zm51.054-9.473h-35.3v-3.291a.1.1,0,0,1,.1-.1h35.1a.1.1,0,0,1,.1.1v3.291Zm20.741,9.473a.1.1,0,0,1-.1.1H78.077a.1.1,0,0,1-.1-.1v-6.482h1.7a6.244,6.244,0,0,0,3.291-.934v7.415Zm-1.07-32.723a4.905,4.905,0,0,1,1.071,3.052v16.907a3.294,3.294,0,0,1-3.291,3.291H65.214v-3.291a3.1,3.1,0,0,0-3.091-3.091h-35.1a3.1,3.1,0,0,0-3.091,3.091v3.291H9.473a3.294,3.294,0,0,1-3.291-3.291V92.22a4.9,4.9,0,0,1,1.071-3.052L11.787,83.5H54.145a1.5,1.5,0,0,0,0-2.992H13.2L17.71,68.115A3.3,3.3,0,0,1,20.8,65.949h47.54a3.3,3.3,0,0,1,3.092,2.166l4.506,12.392H70.1a1.5,1.5,0,0,0,0,2.992h7.258Zm-.724-10.354a1.7,1.7,0,0,1,1.7-1.7h1.6a1.7,1.7,0,0,1,0,3.39h-1.6A1.7,1.7,0,0,1,81.168,78.813Z" transform="translate(0 -54.981)"/></g><g transform="translate(12.763 47.863)"><path class="a" d="M76.4,329.879a3.091,3.091,0,1,0,3.091,3.091A3.095,3.095,0,0,0,76.4,329.879Z" transform="translate(-73.306 -329.879)"/></g><g transform="translate(70.2 47.863)"><path class="a" d="M406.277,329.879a3.091,3.091,0,1,0,3.091,3.091A3.095,3.095,0,0,0,406.277,329.879Z" transform="translate(-403.186 -329.879)"/></g><g transform="translate(9.573 35.1)"><path class="a" d="M60.464,256.573a5.484,5.484,0,1,0,5.484,5.484A5.49,5.49,0,0,0,60.464,256.573Zm0,7.977a2.493,2.493,0,1,1,2.493-2.493A2.5,2.5,0,0,1,60.464,264.55Z" transform="translate(-54.98 -256.573)"/></g><g transform="translate(68.604 35.1)"><path class="a" d="M399.506,256.573a5.484,5.484,0,1,0,5.484,5.484A5.49,5.49,0,0,0,399.506,256.573Zm0,7.977A2.493,2.493,0,1,1,402,262.057,2.5,2.5,0,0,1,399.506,264.55Z" transform="translate(-394.022 -256.573)"/></g></g></svg>