<svg xmlns="http://www.w3.org/2000/svg" width="13.706" height="24.204" viewBox="0 0 13.706 24.204"><defs><style>.a{fill:#ffcc24;}</style></defs><path class="a" d="M17.9,0H7.712A1.762,1.762,0,0,0,5.951,1.763V22.442A1.761,1.761,0,0,0,7.712,24.2H17.9a1.762,1.762,0,0,0,1.761-1.761V1.763A1.763,1.763,0,0,0,17.9,0Zm-7.6,1.071h5.027c.127,0,.23.19.23.424s-.1.425-.23.425H10.291c-.128,0-.229-.191-.229-.425S10.163,1.071,10.291,1.071ZM12.8,22.464a1.125,1.125,0,1,1,1.123-1.125A1.126,1.126,0,0,1,12.8,22.464Zm5.533-3.853H7.271V2.975H18.338V18.61Z" transform="translate(-5.951)"/></svg>