<svg xmlns="http://www.w3.org/2000/svg" xmlns:xlink="http://www.w3.org/1999/xlink" width="36" height="37" viewBox="0 0 36 37">
  <defs>
    <circle id="calendar-a" cx="18" cy="18" r="18"/>
  </defs>
  <g fill="none" fill-rule="evenodd" transform="translate(0 .5)">
    <use fill="#E6EFF6" xlink:href="#calendar-a"/>
    <rect width="24" height="24" x="6" y="6" fill="#FFF" fill-rule="nonzero" opacity="0"/>
    <rect width="24" height="24" x=".559" y=".202" transform="translate(5.44 5.798)"/>
    <path fill="#0060A9" fill-rule="nonzero" stroke="#0060A9" stroke-width=".675" d="M23.4,11.4482281 L22.725,11.4482281 L22.725,10.7732281 C22.725,10.4019781 22.42125,10.0982281 22.05,10.0982281 C21.67875,10.0982281 21.375,10.4019781 21.375,10.7732281 L21.375,11.4482281 L14.625,11.4482281 L14.625,10.7732281 C14.625,10.4019781 14.32125,10.0982281 13.95,10.0982281 C13.57875,10.0982281 13.275,10.4019781 13.275,10.7732281 L13.275,11.4482281 L12.6,11.4482281 C11.8575,11.4482281 11.25,12.0557281 11.25,12.7982281 L11.25,23.5982281 C11.25,24.3407281 11.8575,24.9482281 12.6,24.9482281 L23.4,24.9482281 C24.1425,24.9482281 24.75,24.3407281 24.75,23.5982281 L24.75,12.7982281 C24.75,12.0557281 24.1425,11.4482281 23.4,11.4482281 Z M22.725,23.5982281 L13.275,23.5982281 C12.90375,23.5982281 12.6,23.2944781 12.6,22.9232281 L12.6,14.8232281 L23.4,14.8232281 L23.4,22.9232281 C23.4,23.2944781 23.09625,23.5982281 22.725,23.5982281 Z"/>
  </g>
</svg>
