<?xml version="1.0" encoding="UTF-8"?>
<svg width="20px" height="20px" viewBox="0 0 20 20" version="1.1" xmlns="http://www.w3.org/2000/svg" xmlns:xlink="http://www.w3.org/1999/xlink">
    <title>9. Icon/Info/Info-Outline</title>
    <defs>
        <path d="M12,2 C6.5,2 2,6.5 2,12 C2,17.5 6.5,22 12,22 C17.5,22 22,17.5 22,12 C22,6.5 17.5,2 12,2 Z M12,20 C7.6,20 4,16.4 4,12 C4,7.6 7.6,4 12,4 C16.4,4 20,7.6 20,12 C20,16.4 16.4,20 12,20 Z M11,11 L13,11 L13,17 L11,17 L11,11 Z M12,9 C12.5522847,9 13,8.55228475 13,8 C13,7.44771525 12.5522847,7 12,7 C11.4477153,7 11,7.44771525 11,8 C11,8.55228475 11.4477153,9 12,9 Z" id="path-1"></path>
    </defs>
    <g id="BP--Date-picker" stroke="none" stroke-width="1" fill="none" fill-rule="evenodd">
        <g id="Large---Booking-Panel---date-picker---calendar-default-portugues" transform="translate(-1242.000000, -813.000000)">
            <g id="9.-Icon/Info/Info-Outline" transform="translate(1240.000000, 811.000000)">
                <mask id="mask-2" fill="white">
                    <use xlink:href="#path-1"></use>
                </mask>
                <use id="Icon" fill="#0E4A81" xlink:href="#path-1"></use>
            </g>
        </g>
    </g>
</svg>