<svg xmlns="http://www.w3.org/2000/svg" width="36" height="36" viewBox="0 0 36 36">
  <g fill="none" fill-rule="evenodd">
    <rect width="36" height="36" fill="#EBF3F9" rx="18"/>
    <path fill="#0365A8" fill-rule="nonzero" d="M13.75 18C15.6146875 18 17.125 16.4896875 17.125 14.625 17.125 12.7603125 15.6146875 11.25 13.75 11.25 11.8853125 11.25 10.375 12.7603125 10.375 14.625 10.375 16.4896875 11.8853125 18 13.75 18zM13.75 19.6875C11.4971875 19.6875 7 20.818125 7 23.0625 7 23.5676002 7 23.9464253 7 24.1989754 7 24.5663251 7.19448812 24.75 7.58346435 24.75L20.5 24.75 20.5 23.0625C20.5 20.818125 16.0028125 19.6875 13.75 19.6875z"/>
    <path fill="#0365A8" fill-rule="nonzero" stroke="#E9F3FA" stroke-width="1.5" d="M23 12.75C24.0359375 12.75 24.9733925 13.1696073 25.6518926 13.8481074 26.3303927 14.5266075 26.75 15.4640625 26.75 16.5 26.75 17.5359375 26.3303927 18.4733925 25.6518926 19.1518926 24.9733925 19.8303927 24.0359375 20.25 23 20.25 21.9640625 20.25 21.0266075 19.8303927 20.3481074 19.1518926 19.6696073 18.4733925 19.25 17.5359375 19.25 16.5 19.25 15.4640625 19.6696073 14.5266075 20.3481074 13.8481074 21.0266075 13.1696073 21.9640625 12.75 23 12.75zM23 20.25C24.3607265 20.25 26.2311956 20.5401829 27.5991032 21.1101444 28.2209399 21.369243 28.7430263 21.6895694 29.1036244 22.0519155 29.5294161 22.4797714 29.75 22.9695856 29.75 23.5L29.75 23.5 29.75 25.0812511 17.2478858 25.5182097 16.5304515 23.6546997C16.4856388 23.0631768 16.6971203 22.5233155 17.1360772 22.0566401 17.4823984 21.6884499 17.9835697 21.3638869 18.5836028 21.1018841 19.8746131 20.5381679 21.642799 20.25 23 20.25L23 20.25z"/>
    <path fill="#0365A8" fill-rule="nonzero" stroke="#E9F3FA" stroke-width="1.5" d="M23 12.75C24.0359375 12.75 24.9733925 13.1696073 25.6518926 13.8481074 26.3303927 14.5266075 26.75 15.4640625 26.75 16.5 26.75 17.5359375 26.3303927 18.4733925 25.6518926 19.1518926 24.9733925 19.8303927 24.0359375 20.25 23 20.25 21.9640625 20.25 21.0266075 19.8303927 20.3481074 19.1518926 19.6696073 18.4733925 19.25 17.5359375 19.25 16.5 19.25 15.4640625 19.6696073 14.5266075 20.3481074 13.8481074 21.0266075 13.1696073 21.9640625 12.75 23 12.75zM23 20.25C24.3607265 20.25 26.2311956 20.5401829 27.5991032 21.1101444 28.2209399 21.369243 28.7430263 21.6895694 29.1036244 22.0519155 29.5294161 22.4797714 29.75 22.9695856 29.75 23.5L29.75 23.5 29.75 25.0812511 17.2478858 25.5182097 16.5304515 23.6546997C16.4856388 23.0631768 16.6971203 22.5233155 17.1360772 22.0566401 17.4823984 21.6884499 17.9835697 21.3638869 18.5836028 21.1018841 19.8746131 20.5381679 21.642799 20.25 23 20.25L23 20.25z"/>
  </g>
</svg>
