<?xml version="1.0" encoding="utf-8"?>
<!-- Generator: Adobe Illustrator 25.3.1, SVG Export Plug-In . SVG Version: 6.00 Build 0)  -->
<svg version="1.1" id="Layer_1" xmlns="http://www.w3.org/2000/svg" xmlns:xlink="http://www.w3.org/1999/xlink" x="0px" y="0px"
	 viewBox="0 0 67.5 65.93" style="enable-background:new 0 0 67.5 65.93;" xml:space="preserve">
<style type="text/css">
	.st0{fill:#231F20;}
</style>
<g>
	<g>
		<path class="st0" d="M50.23,29.75V11.97c0-3.18-2.59-5.71-5.71-5.71h-7.1V4.27c0-1.13-0.93-2.06-2.06-2.06s-2.06,0.93-2.06,2.06
			V6.2H19.19V4.27c0-1.13-0.93-2.06-2.06-2.06s-2.06,0.93-2.06,2.06V6.2h-7.1c-3.18,0-5.71,2.59-5.71,5.71v31.05
			c0,3.18,2.59,5.71,5.71,5.71h23.29c1,8.43,8.23,15.06,16.92,15.06c9.42,0,17.05-7.63,17.05-17.05
			C65.29,37.97,58.73,30.74,50.23,29.75z M7.97,10.31h7.1v1.92c0,1.13,0.93,2.06,2.06,2.06s2.06-0.93,2.06-2.06v-1.92h14.13v1.92
			c0,1.13,0.93,2.06,2.06,2.06s2.06-0.93,2.06-2.06v-1.92h7.1c0.93,0,1.66,0.73,1.66,1.66v6.97H6.38v-6.97
			C6.38,11.04,7.11,10.31,7.97,10.31z M6.38,43.02V22.98h39.8v6.77c-7.76,0.93-13.93,7.1-14.86,14.86H7.97
			C7.11,44.61,6.38,43.88,6.38,43.02z M48.24,59.67c-7.16,0-13-5.84-13-13s5.84-12.94,13-12.94s13,5.84,13,13
			S55.41,59.67,48.24,59.67z"/>
		<path class="st0" d="M53.88,44.61h-3.65V39.7c0-1.13-0.93-2.06-2.06-2.06s-2.06,0.93-2.06,2.06v6.97c0,1.13,0.93,2.06,2.06,2.06
			h5.71c1.13,0,2.06-0.93,2.06-2.06S55.01,44.61,53.88,44.61z"/>
	</g>
	<path class="st0" d="M38.31,27.16c-0.45-0.98-2.49-1-8.72,1.82L18.5,26.84l-1.58,0.74l7.63,3.83l-8.08,4.6l-4.04-2.4l-0.78,0.23
		l3.75,4.05l-0.46,1.12l0.51,0.35l1.98-1.26c0,0,8.74-3.08,8.73-3.19l5.13-2.27C37.46,29.71,38.76,28.14,38.31,27.16z"/>
</g>
</svg>
