<svg xmlns="http://www.w3.org/2000/svg" xmlns:xlink="http://www.w3.org/1999/xlink" width="87" height="26" viewBox="0 0 87 26">
  <defs>
    <rect id="group-27-b" width="81" height="20" x="0" y="0" rx="1"/>
    <filter id="group-27-a" width="112.3%" height="150%" x="-6.2%" y="-20%" filterUnits="objectBoundingBox">
      <feOffset dy="1" in="SourceAlpha" result="shadowOffsetOuter1"/>
      <feGaussianBlur in="shadowOffsetOuter1" result="shadowBlurOuter1" stdDeviation="1.5"/>
      <feColorMatrix in="shadowBlurOuter1" result="shadowMatrixOuter1" values="0 0 0 0 0   0 0 0 0 0   0 0 0 0 0  0 0 0 0.08 0"/>
      <feMorphology in="SourceAlpha" radius=".5" result="shadowSpreadOuter2"/>
      <feOffset dy="2" in="shadowSpreadOuter2" result="shadowOffsetOuter2"/>
      <feGaussianBlur in="shadowOffsetOuter2" result="shadowBlurOuter2" stdDeviation=".5"/>
      <feColorMatrix in="shadowBlurOuter2" result="shadowMatrixOuter2" values="0 0 0 0 0   0 0 0 0 0   0 0 0 0 0  0 0 0 0.04 0"/>
      <feOffset dy="1" in="SourceAlpha" result="shadowOffsetOuter3"/>
      <feGaussianBlur in="shadowOffsetOuter3" result="shadowBlurOuter3" stdDeviation=".5"/>
      <feColorMatrix in="shadowBlurOuter3" result="shadowMatrixOuter3" values="0 0 0 0 0   0 0 0 0 0   0 0 0 0 0  0 0 0 0.1 0"/>
      <feMerge>
        <feMergeNode in="shadowMatrixOuter1"/>
        <feMergeNode in="shadowMatrixOuter2"/>
        <feMergeNode in="shadowMatrixOuter3"/>
      </feMerge>
    </filter>
  </defs>
  <g fill="none" fill-rule="evenodd" transform="translate(3 2)">
    <use fill="#000" filter="url(#group-27-a)" xlink:href="#group-27-b"/>
    <use fill="#FFF" xlink:href="#group-27-b"/>
    <path fill="#AAAAAB" fill-rule="nonzero" d="M9.04333333,14 L9.04333333,10.8 L12.5033333,10.8 L12.5033333,14 L13.7733333,14 L13.7733333,6.75 L12.5033333,6.75 L12.5033333,9.75 L9.04333333,9.75 L9.04333333,6.75 L7.77333333,6.75 L7.77333333,14 L9.04333333,14 Z M19.2366667,14.13 C21.3666667,14.13 22.6966667,12.6 22.6966667,10.37 C22.6966667,8.14 21.3666667,6.62 19.2366667,6.62 C17.1066667,6.62 15.7766667,8.14 15.7766667,10.37 C15.7766667,12.6 17.1066667,14.13 19.2366667,14.13 Z M19.2366667,13.09 C18.0366667,13.09 17.0866667,12.13 17.0866667,10.37 C17.0866667,8.61 18.0366667,7.66 19.2366667,7.66 C20.4366667,7.66 21.3866667,8.61 21.3866667,10.37 C21.3866667,12.13 20.4366667,13.09 19.2366667,13.09 Z M25.94,14 L25.94,8.13 L27.78,14 L29.07,14 L30.91,8.13 L30.91,14 L32.15,14 L32.15,6.75 L30.18,6.75 L28.43,12.53 L26.67,6.75 L24.7,6.75 L24.7,14 L25.94,14 Z M39.5733333,14 L39.5733333,12.93 L35.7133333,12.93 L35.7133333,10.8 L39.3633333,10.8 L39.3633333,9.75 L35.7133333,9.75 L35.7133333,7.81 L39.5733333,7.81 L39.5733333,6.75 L34.4433333,6.75 L34.4433333,14 L39.5733333,14 Z M44.92,14 L47.74,6.75 L46.6,6.75 L43.78,14 L44.92,14 Z M57.5166667,14 L57.5166667,12.93 L53.6566667,12.93 L53.6566667,10.8 L57.3066667,10.8 L57.3066667,9.75 L53.6566667,9.75 L53.6566667,7.81 L57.5166667,7.81 L57.5166667,6.75 L52.3866667,6.75 L52.3866667,14 L57.5166667,14 Z M60.6,14 L60.6,8.21 L63.67,14 L65.37,14 L65.37,6.75 L64.14,6.75 L64.14,12.54 L61.07,6.75 L59.37,6.75 L59.37,14 L60.6,14 Z M69.6433333,14 C71.9433333,14 73.6933333,13.2 73.6933333,10.37 C73.6933333,7.54 71.9433333,6.75 69.6433333,6.75 L67.6633333,6.75 L67.6633333,14 L69.6433333,14 Z M69.5833333,12.98 L68.9333333,12.98 L68.9333333,7.77 L69.5833333,7.77 C70.9733333,7.77 72.3733333,8.08 72.3733333,10.37 C72.3733333,12.67 70.9733333,12.98 69.5833333,12.98 Z"/>
  </g>
</svg>
