<?xml version="1.0" encoding="UTF-8"?>
<svg width="106px" height="26px" viewBox="0 0 106 26" version="1.1" xmlns="http://www.w3.org/2000/svg" xmlns:xlink="http://www.w3.org/1999/xlink">
    <title>Group 2</title>
    <defs>
        <rect id="path-1" x="0" y="0" width="46" height="20" rx="1"></rect>
        <filter x="-10.9%" y="-20.0%" width="121.7%" height="150.0%" filterUnits="objectBoundingBox" id="filter-2">
            <feOffset dx="0" dy="1" in="SourceAlpha" result="shadowOffsetOuter1"></feOffset>
            <feGaussianBlur stdDeviation="1.5" in="shadowOffsetOuter1" result="shadowBlurOuter1"></feGaussianBlur>
            <feColorMatrix values="0 0 0 0 0   0 0 0 0 0   0 0 0 0 0  0 0 0 0.08 0" type="matrix" in="shadowBlurOuter1" result="shadowMatrixOuter1"></feColorMatrix>
            <feMorphology radius="0.5" operator="erode" in="SourceAlpha" result="shadowSpreadOuter2"></feMorphology>
            <feOffset dx="0" dy="2" in="shadowSpreadOuter2" result="shadowOffsetOuter2"></feOffset>
            <feGaussianBlur stdDeviation="0.5" in="shadowOffsetOuter2" result="shadowBlurOuter2"></feGaussianBlur>
            <feColorMatrix values="0 0 0 0 0   0 0 0 0 0   0 0 0 0 0  0 0 0 0.04 0" type="matrix" in="shadowBlurOuter2" result="shadowMatrixOuter2"></feColorMatrix>
            <feOffset dx="0" dy="1" in="SourceAlpha" result="shadowOffsetOuter3"></feOffset>
            <feGaussianBlur stdDeviation="0.5" in="shadowOffsetOuter3" result="shadowBlurOuter3"></feGaussianBlur>
            <feColorMatrix values="0 0 0 0 0   0 0 0 0 0   0 0 0 0 0  0 0 0 0.1 0" type="matrix" in="shadowBlurOuter3" result="shadowMatrixOuter3"></feColorMatrix>
            <feMerge>
                <feMergeNode in="shadowMatrixOuter1"></feMergeNode>
                <feMergeNode in="shadowMatrixOuter2"></feMergeNode>
                <feMergeNode in="shadowMatrixOuter3"></feMergeNode>
            </feMerge>
        </filter>
        <rect id="path-3" x="0" y="0" width="46" height="20" rx="1"></rect>
        <filter x="-10.9%" y="-20.0%" width="121.7%" height="150.0%" filterUnits="objectBoundingBox" id="filter-4">
            <feOffset dx="0" dy="1" in="SourceAlpha" result="shadowOffsetOuter1"></feOffset>
            <feGaussianBlur stdDeviation="1.5" in="shadowOffsetOuter1" result="shadowBlurOuter1"></feGaussianBlur>
            <feColorMatrix values="0 0 0 0 0   0 0 0 0 0   0 0 0 0 0  0 0 0 0.08 0" type="matrix" in="shadowBlurOuter1" result="shadowMatrixOuter1"></feColorMatrix>
            <feMorphology radius="0.5" operator="erode" in="SourceAlpha" result="shadowSpreadOuter2"></feMorphology>
            <feOffset dx="0" dy="2" in="shadowSpreadOuter2" result="shadowOffsetOuter2"></feOffset>
            <feGaussianBlur stdDeviation="0.5" in="shadowOffsetOuter2" result="shadowBlurOuter2"></feGaussianBlur>
            <feColorMatrix values="0 0 0 0 0   0 0 0 0 0   0 0 0 0 0  0 0 0 0.04 0" type="matrix" in="shadowBlurOuter2" result="shadowMatrixOuter2"></feColorMatrix>
            <feOffset dx="0" dy="1" in="SourceAlpha" result="shadowOffsetOuter3"></feOffset>
            <feGaussianBlur stdDeviation="0.5" in="shadowOffsetOuter3" result="shadowBlurOuter3"></feGaussianBlur>
            <feColorMatrix values="0 0 0 0 0   0 0 0 0 0   0 0 0 0 0  0 0 0 0.1 0" type="matrix" in="shadowBlurOuter3" result="shadowMatrixOuter3"></feColorMatrix>
            <feMerge>
                <feMergeNode in="shadowMatrixOuter1"></feMergeNode>
                <feMergeNode in="shadowMatrixOuter2"></feMergeNode>
                <feMergeNode in="shadowMatrixOuter3"></feMergeNode>
            </feMerge>
        </filter>
    </defs>
    <g id="BP--Date-picker" stroke="none" stroke-width="1" fill="none" fill-rule="evenodd">
        <g id="Large---Booking-Panel---date-picker---calendar-keyboard-navigation---open" transform="translate(-597.000000, -649.000000)">
            <g id="Group-3" transform="translate(520.000000, 404.000000)">
                <g id="Group-2" transform="translate(80.000000, 247.000000)">
                    <g id="Group-18" transform="translate(54.000000, 0.000000)">
                        <g id="Rectangle-Copy-14">
                            <use fill="black" fill-opacity="1" filter="url(#filter-2)" xlink:href="#path-1"></use>
                            <use fill="#FFFFFF" fill-rule="evenodd" xlink:href="#path-1"></use>
                        </g>
                        <path d="M4.675,14 L5.235,12.39 L8.175,12.39 L8.745,14 L10.135,14 L7.415,6.75 L6.075,6.75 L3.375,14 L4.675,14 Z M7.795,11.33 L5.605,11.33 L6.695,8.22 L7.795,11.33 Z M14.0483333,14 L16.5283333,6.75 L15.1883333,6.75 L13.3983333,12.5 L11.5583333,6.75 L10.1783333,6.75 L12.6883333,14 L14.0483333,14 Z M22.505,14 L22.505,11.26 L23.645,11.26 C25.355,11.26 26.705,10.86 26.705,9.03 C26.705,7.01 25.215,6.75 23.625,6.75 L21.235,6.75 L21.235,14 L22.505,14 Z M23.685,10.22 L22.505,10.22 L22.505,7.77 L23.625,7.77 C24.515,7.77 25.385,7.86 25.385,9.04 C25.385,10.08 24.645,10.22 23.685,10.22 Z M30.8583333,6.27 L32.4083333,5.14 L30.8683333,5.14 L29.8183333,6.27 L30.8583333,6.27 Z M28.2583333,14 L28.8183333,12.39 L31.7583333,12.39 L32.3283333,14 L33.7183333,14 L30.9983333,6.75 L29.6583333,6.75 L26.9583333,14 L28.2583333,14 Z M31.3783333,11.33 L29.1883333,11.33 L30.2783333,8.22 L31.3783333,11.33 Z M37.8916667,14.13 C38.8816667,14.13 39.6816667,13.77 40.1116667,13.13 L40.1516667,14 L41.1516667,14 L41.1516667,10.21 L38.1216667,10.21 L38.1216667,11.28 L39.9716667,11.28 L39.9716667,11.42 C39.9716667,12.71 38.8916667,13.09 38.0316667,13.09 C36.7516667,13.09 35.9016667,12.11 35.9016667,10.35 C35.9016667,8.57 36.8116667,7.66 38.0416667,7.66 C38.9916667,7.66 39.6816667,8.16 39.9216667,9.05 L41.1316667,9.05 C40.8316667,7.51 39.6916667,6.62 38.0716667,6.62 C35.9216667,6.62 34.5916667,8.1 34.5916667,10.35 C34.5916667,12.62 35.8316667,14.13 37.8916667,14.13 Z" id="AVPÁG" fill="#AAAAAB" fill-rule="nonzero"></path>
                    </g>
                    <g id="Group-19">
                        <g id="Rectangle-Copy-15">
                            <use fill="black" fill-opacity="1" filter="url(#filter-4)" xlink:href="#path-3"></use>
                            <use fill="#FFFFFF" fill-rule="evenodd" xlink:href="#path-3"></use>
                        </g>
                        <path d="M5.57,14 L5.57,10.95 L6.8,10.95 C6.93,10.95 7.06,10.95 7.18,10.94 L8.71,14 L10.14,14 L8.48,10.71 C9.38,10.4 9.84,9.77 9.84,8.84 C9.84,7.23 8.75,6.75 6.61,6.75 L4.3,6.75 L4.3,14 L5.57,14 Z M6.83,9.94 L5.57,9.94 L5.57,7.77 L6.79,7.77 C7.79,7.77 8.54,7.9 8.54,8.85 C8.54,9.72 7.92,9.94 6.83,9.94 Z M17.0533333,14 L17.0533333,12.93 L13.1933333,12.93 L13.1933333,10.8 L16.8433333,10.8 L16.8433333,9.75 L13.1933333,9.75 L13.1933333,7.81 L17.0533333,7.81 L17.0533333,6.75 L11.9233333,6.75 L11.9233333,14 L17.0533333,14 Z M23.31,14 L23.31,11.26 L24.45,11.26 C26.16,11.26 27.51,10.86 27.51,9.03 C27.51,7.01 26.02,6.75 24.43,6.75 L22.04,6.75 L22.04,14 L23.31,14 Z M24.49,10.22 L23.31,10.22 L23.31,7.77 L24.43,7.77 C25.32,7.77 26.19,7.86 26.19,9.04 C26.19,10.08 25.45,10.22 24.49,10.22 Z M31.6633333,6.27 L33.2133333,5.14 L31.6733333,5.14 L30.6233333,6.27 L31.6633333,6.27 Z M29.0633333,14 L29.6233333,12.39 L32.5633333,12.39 L33.1333333,14 L34.5233333,14 L31.8033333,6.75 L30.4633333,6.75 L27.7633333,14 L29.0633333,14 Z M32.1833333,11.33 L29.9933333,11.33 L31.0833333,8.22 L32.1833333,11.33 Z M38.6966667,14.13 C39.6866667,14.13 40.4866667,13.77 40.9166667,13.13 L40.9566667,14 L41.9566667,14 L41.9566667,10.21 L38.9266667,10.21 L38.9266667,11.28 L40.7766667,11.28 L40.7766667,11.42 C40.7766667,12.71 39.6966667,13.09 38.8366667,13.09 C37.5566667,13.09 36.7066667,12.11 36.7066667,10.35 C36.7066667,8.57 37.6166667,7.66 38.8466667,7.66 C39.7966667,7.66 40.4866667,8.16 40.7266667,9.05 L41.9366667,9.05 C41.6366667,7.51 40.4966667,6.62 38.8766667,6.62 C36.7266667,6.62 35.3966667,8.1 35.3966667,10.35 C35.3966667,12.62 36.6366667,14.13 38.6966667,14.13 Z" id="REPÁG" fill="#AAAAAB" fill-rule="nonzero"></path>
                    </g>
                </g>
            </g>
        </g>
    </g>
</svg>