<svg xmlns="http://www.w3.org/2000/svg" xmlns:xlink="http://www.w3.org/1999/xlink" width="36" height="36" viewBox="0 0 36 36">
  <defs>
    <circle id="upplane-a" cx="18" cy="18" r="18"/>
  </defs>
  <g fill="none" fill-rule="evenodd">
    <use fill="#E6EFF6" xlink:href="#upplane-a"/>
    <rect width="24" height="24" x="6" y="6" fill="#FFF" fill-rule="nonzero" opacity="0"/>
    <rect width="24" height="24" x=".559" y=".202" transform="translate(5.44 5.798)"/>
    <path fill="#0060A9" fill-rule="nonzero" stroke="#0060A9" stroke-width=".75" d="M24.1052211,22.6773827 L11.3552211,22.6773827 C10.9427211,22.6773827 10.6052211,23.0148827 10.6052211,23.4273827 C10.6052211,23.8398827 10.9427211,24.1773827 11.3552211,24.1773827 L24.1052211,24.1773827 C24.5177211,24.1773827 24.8552211,23.8398827 24.8552211,23.4273827 C24.8552211,23.0148827 24.5177211,22.6773827 24.1052211,22.6773827 Z M25.2827211,15.6573827 C25.1177211,15.0573827 24.5027211,14.7048827 23.9027211,14.8623827 L19.9202211,15.9273827 L15.0752211,11.4123827 C14.8727211,11.2173827 14.5802211,11.1498827 14.3102211,11.2248827 C13.8002211,11.3673827 13.5602211,11.9523827 13.8227211,12.4098827 L16.4027211,16.8798827 L12.6752211,17.8773827 L11.4977211,16.9473827 C11.3102211,16.8048827 11.0702211,16.7523827 10.8377211,16.8123827 L10.5902211,16.8798827 C10.3502211,16.9398827 10.2377211,17.2173827 10.3652211,17.4273827 L11.7752211,19.8648827 C11.9477211,20.1573827 12.2927211,20.2998827 12.6152211,20.2173827 L24.4802211,17.0373827 C25.0802211,16.8723827 25.4402211,16.2573827 25.2827211,15.6573827 Z"/>
  </g>
</svg>
