<svg id="Capa_1" data-name="Capa 1" xmlns="http://www.w3.org/2000/svg" viewBox="0 0 190.34 75.66"><defs><style>.cls-1{fill:#fff;}.cls-2{fill:#1c3e8d;}.cls-3{fill:#23aae2;}</style></defs><path class="cls-1" d="M83.48,25.43h-2.1v6.32H79.84V25.43H77.76V24h5.72Z"/><path class="cls-1" d="M84.21,29.2V24h1.52v5.11c0,.75.4,1.32,1.45,1.32s1.44-.57,1.44-1.32V24h1.54V29.2a3,3,0,0,1-6,0Z"/><path class="cls-1" d="M94,30l1.31-.77a1.76,1.76,0,0,0,1.79,1.19c.93,0,1.25-.39,1.25-.82s-.52-.8-1.68-1.13-2.34-.85-2.34-2.33a2.37,2.37,0,0,1,2.55-2.31,3,3,0,0,1,2.78,1.75l-1.29.74a1.53,1.53,0,0,0-1.49-1c-.64,0-1,.33-1,.78s.3.73,1.48,1.09,2.54.8,2.54,2.39-1.17,2.34-2.82,2.34A3,3,0,0,1,94,30Z"/><path class="cls-1" d="M105.8,30.28v1.47H101V24h4.76v1.46h-3.23v1.66h3v1.44h-3v1.75Z"/><path class="cls-1" d="M114.53,28.17a3.6,3.6,0,0,1-3.83,3.73,4,4,0,1,1-.08-8.09A4,4,0,0,1,114,25.62l-1.31.76a2.38,2.38,0,0,0-2.09-1.08,2.55,2.55,0,1,0,.12,5.1A2.14,2.14,0,0,0,113,28.92h-2.35V27.57h3.9Z"/><path class="cls-1" d="M115.56,29.2V24h1.53v5.11c0,.75.4,1.32,1.44,1.32s1.45-.57,1.45-1.32V24h1.53V29.2a3,3,0,0,1-6,0Z"/><path class="cls-1" d="M125.7,29.05h-1.16v2.7H123V24h3.11a2.58,2.58,0,0,1,2.59,2.58,2.53,2.53,0,0,1-1.5,2.26l1.72,2.94h-1.65Zm-1.16-1.35h1.57a1.15,1.15,0,0,0,0-2.3h-1.57Z"/><path class="cls-1" d="M131.42,24v7.78h-1.53V24Z"/><path class="cls-1" d="M139.78,27.86A3.75,3.75,0,0,1,136,31.75H133V24H136A3.75,3.75,0,0,1,139.78,27.86Zm-1.47,0A2.25,2.25,0,0,0,136,25.43h-1.56v4.85H136A2.24,2.24,0,0,0,138.31,27.86Z"/><path class="cls-1" d="M145.07,30.35H142l-.47,1.4h-1.65L142.57,24h1.9l2.73,7.78h-1.66Zm-.48-1.44-1.06-3.18-1.07,3.18Z"/><path class="cls-1" d="M154.76,27.86A3.75,3.75,0,0,1,151,31.75h-3.09V24H151A3.75,3.75,0,0,1,154.76,27.86Zm-1.47,0A2.25,2.25,0,0,0,151,25.43h-1.56v4.85H151A2.24,2.24,0,0,0,153.29,27.86Z"/><path class="cls-1" d="M84.37,36.61v7.78H83.2l-3.33-4.75v4.75H78.33V36.61H79.5l3.33,4.75V36.61Z"/><path class="cls-1" d="M85.86,41.85V36.61h1.52v5.12c0,.75.4,1.32,1.45,1.32s1.44-.57,1.44-1.32V36.61H91.8v5.24a3,3,0,0,1-5.94,0Z"/><path class="cls-1" d="M98.11,42.93v1.46H93.3V36.61h4.75v1.47H94.83v1.66h3v1.44h-3v1.75Z"/><path class="cls-1" d="M98.82,42.63l1.31-.77a1.76,1.76,0,0,0,1.79,1.19c.93,0,1.25-.39,1.25-.82s-.52-.8-1.68-1.14-2.34-.84-2.34-2.32a2.36,2.36,0,0,1,2.55-2.31,3,3,0,0,1,2.78,1.74l-1.29.75a1.53,1.53,0,0,0-1.49-1c-.64,0-1,.33-1,.77s.3.74,1.48,1.09,2.54.8,2.54,2.39-1.17,2.35-2.82,2.35A3,3,0,0,1,98.82,42.63Z"/><path class="cls-1" d="M110.87,38.08h-2.1v6.31h-1.54V38.08h-2.09V36.61h5.73Z"/><path class="cls-1" d="M114.33,41.69h-1.17v2.7h-1.53V36.61h3.11a2.58,2.58,0,0,1,2.59,2.58,2.53,2.53,0,0,1-1.5,2.27l1.72,2.93H115.9Zm-1.17-1.34h1.58a1.11,1.11,0,0,0,1.06-1.16,1.1,1.1,0,0,0-1.06-1.14h-1.58Z"/><path class="cls-1" d="M123.24,43h-3.1l-.47,1.4H118l2.73-7.78h1.9l2.73,7.78H123.7Zm-.48-1.43-1.07-3.18-1.06,3.18Z"/><path class="cls-1" d="M83.89,51.87a2.6,2.6,0,0,1-2.66,2.61H79.87V57H78.33V49.26h2.9A2.61,2.61,0,0,1,83.89,51.87Zm-1.52,0a1.12,1.12,0,0,0-1.14-1.18H79.87v2.36h1.36A1.13,1.13,0,0,0,82.37,51.87Z"/><path class="cls-1" d="M87.5,54.34H86.33V57H84.8V49.26h3.11a2.59,2.59,0,0,1,2.59,2.58A2.52,2.52,0,0,1,89,54.1L90.72,57H89.06ZM86.33,53h1.58a1.15,1.15,0,0,0,0-2.3H86.33Z"/><path class="cls-1" d="M93.22,49.26V57H91.68V49.26Z"/><path class="cls-1" d="M94.33,53.15a4,4,0,1,1,4,4A4,4,0,0,1,94.33,53.15Zm6.55,0a2.51,2.51,0,1,0-2.51,2.54A2.47,2.47,0,0,0,100.88,53.15Z"/><path class="cls-1" d="M106.23,54.34h-1.17V57h-1.53V49.26h3.11a2.59,2.59,0,0,1,2.59,2.58,2.52,2.52,0,0,1-1.5,2.26L109.45,57h-1.66ZM105.06,53h1.58a1.15,1.15,0,0,0,0-2.3h-1.58Z"/><path class="cls-1" d="M112,49.26V57h-1.53V49.26Z"/><path class="cls-1" d="M120.3,53.15A3.75,3.75,0,0,1,116.56,57h-3.09V49.26h3.09A3.75,3.75,0,0,1,120.3,53.15Zm-1.46,0a2.25,2.25,0,0,0-2.28-2.42H115v4.84h1.56A2.25,2.25,0,0,0,118.84,53.15Z"/><path class="cls-1" d="M125.6,55.64h-3.1L122,57h-1.66l2.73-7.78H125L127.73,57h-1.67Zm-.48-1.44L124.05,51,123,54.2Z"/><path class="cls-1" d="M135.29,53.15A3.75,3.75,0,0,1,131.54,57h-3.09V49.26h3.09A3.75,3.75,0,0,1,135.29,53.15Zm-1.47,0a2.24,2.24,0,0,0-2.28-2.42H130v4.84h1.55A2.24,2.24,0,0,0,133.82,53.15Z"/><path class="cls-2" d="M66.5,30.43A7.41,7.41,0,0,1,61,18.1a64.91,64.91,0,0,0-8.85-.64,72.17,72.17,0,0,0-16.52,2.12V39.85c0,7.34,16.52,18.34,16.52,18.34s16.51-11,16.51-18.34V30.13A7.37,7.37,0,0,1,66.5,30.43Z"/><circle class="cls-3" cx="66.52" cy="23.02" r="5.55"/><polygon class="cls-1" points="69.94 22.07 67.45 22.07 67.45 19.57 65.55 19.57 65.55 22.07 63.05 22.07 63.05 23.96 65.55 23.96 65.55 26.46 67.45 26.46 67.45 23.96 69.94 23.96 69.94 22.07"/><path class="cls-1" d="M52.15,44.26l4.09,1.42L56.15,45,53,42.85s.75-7.5.66-7.53l8.6,2.76V36.65l-8.49-5.89c0-5.56-.74-7.06-1.61-7.07s-1.6,1.49-1.68,7l-8.57,5.77v1.43l8.63-2.65.59,7.54L48,45l-.1.65Z"/></svg>