<svg id="Layer_1" data-name="Layer 1" xmlns="http://www.w3.org/2000/svg" viewBox="0 0 1920 1080"><defs><style>.cls-1{fill:#00acec;}.cls-2{fill:#0032a0;}.cls-3{fill:#fff;}</style></defs><path class="cls-1" d="M805,375.66H777.14v83.69H756.8V375.66H729.11V356.22H805Z"/><path class="cls-1" d="M814.71,425.61V356.22H834.9V424c0,10,5.3,17.53,19.15,17.53S873.2,434,873.2,424V356.22h20.33v69.39c0,22.25-16.79,35.8-39.48,35.8C831.51,461.41,814.71,447.86,814.71,425.61Z"/><path class="cls-1" d="M944.79,435.92l17.39-10.16c3.68,9.57,10.9,15.76,23.72,15.76,12.22,0,16.5-5.15,16.5-10.9,0-7.66-6.93-10.61-22.25-15-15.76-4.56-31.09-11.2-31.09-30.79s16.21-30.65,33.89-30.65c16.94,0,29.91,8.7,36.83,23.14l-17.09,9.87C999,379.35,993.41,373.9,983,373.9c-8.54,0-13.56,4.42-13.56,10.31,0,6.34,4,9.72,19.6,14.44,16.35,5.15,33.74,10.61,33.74,31.67,0,19.31-15.47,31.09-37.42,31.09C964.24,461.41,950.39,451.25,944.79,435.92Z"/><path class="cls-1" d="M1101,439.9v19.45h-63.8V356.22h63.06v19.44H1057.5v22h39v19.15h-39V439.9Z"/><path class="cls-1" d="M1216.64,411.91c0,29.76-21.07,49.5-50.68,49.5-32.27,0-55.25-24-55.25-53.48,0-29.91,23.28-53.78,54.07-53.78,19.6,0,36.25,9.88,44.94,24l-17.39,10c-4.71-8.25-15.18-14.29-27.7-14.29-19.59,0-33.74,14.44-33.74,34,0,19.15,13.71,33.59,35.22,33.59,16.2,0,26.51-7.81,30.05-19.59h-31.23V404h51.71Z"/><path class="cls-1" d="M1230.39,425.61V356.22h20.19V424c0,10,5.3,17.53,19.15,17.53s19.15-7.51,19.15-17.53V356.22h20.33v69.39c0,22.25-16.79,35.8-39.48,35.8C1247.19,461.41,1230.39,447.86,1230.39,425.61Z"/><path class="cls-1" d="M1364.81,423.55h-15.48v35.8H1329V356.22h41.26a34.24,34.24,0,0,1,34.33,34.18c0,13-8.11,24.6-19.9,30.05l22.84,38.9h-22Zm-15.48-17.83h20.93c7.66,0,14-6.78,14-15.32s-6.33-15.18-14-15.18h-20.93Z"/><path class="cls-1" d="M1440.67,356.22V459.35h-20.33V356.22Z"/><path class="cls-1" d="M1551.46,407.78c0,29-21.22,51.57-49.65,51.57h-41V356.22h41C1530.24,356.22,1551.46,378.76,1551.46,407.78Zm-19.45,0c0-19-12.38-32.12-30.2-32.12h-20.63V439.9h20.63C1519.63,439.9,1532,426.79,1532,407.78Z"/><path class="cls-1" d="M1621.61,440.79H1580.5l-6.19,18.56h-22l36.09-103.13h25.2l36.24,103.13h-22.1Zm-6.34-19-14.15-42.14L1587,421.78Z"/><path class="cls-1" d="M1750.1,407.78c0,29-21.22,51.57-49.65,51.57h-41V356.22h41C1728.88,356.22,1750.1,378.76,1750.1,407.78Zm-19.45,0c0-19-12.38-32.12-30.2-32.12h-20.63V439.9h20.63C1718.27,439.9,1730.65,426.79,1730.65,407.78Z"/><path class="cls-2" d="M816.77,523.89V627H801.3l-44.2-63v63H736.77V523.89h15.47l44.2,62.91V523.89Z"/><path class="cls-2" d="M836.56,593.29v-69.4h20.18v67.77c0,10,5.3,17.54,19.15,17.54s19.16-7.52,19.16-17.54V523.89h20.33v69.4c0,22.24-16.8,35.8-39.49,35.8C853.35,629.09,836.56,615.53,836.56,593.29Z"/><path class="cls-2" d="M999,607.58V627h-63.8V523.89h63.06v19.45H955.5v21.95h39v19.16h-39v23.13Z"/><path class="cls-2" d="M1008.43,603.6l17.38-10.17c3.69,9.58,10.91,15.77,23.73,15.77,12.22,0,16.49-5.16,16.49-10.91,0-7.66-6.92-10.6-22.24-15-15.77-4.57-31.09-11.2-31.09-30.79s16.21-30.65,33.89-30.65c16.94,0,29.91,8.69,36.83,23.13l-17.09,9.87c-3.68-7.81-9.28-13.26-19.74-13.26-8.55,0-13.56,4.42-13.56,10.31,0,6.34,4,9.73,19.6,14.44,16.35,5.16,33.74,10.61,33.74,31.68,0,19.3-15.47,31.09-37.42,31.09C1027.87,629.09,1014,618.92,1008.43,603.6Z"/><path class="cls-2" d="M1168.1,543.34h-27.85V627h-20.33V543.34h-27.7V523.89h75.88Z"/><path class="cls-2" d="M1214.06,591.22h-15.48V627h-20.33V523.89h41.26a34.23,34.23,0,0,1,34.32,34.18c0,13-8.1,24.61-19.89,30.06L1256.78,627h-22Zm-15.48-17.83h20.93c7.65,0,14-6.77,14-15.32s-6.34-15.17-14-15.17h-20.93Z"/><path class="cls-2" d="M1332.13,608.46H1291L1284.84,627h-21.95L1299,523.89h25.19L1360.42,627h-22.1Zm-6.33-19-14.15-42.13-14.14,42.13Z"/><path class="cls-2" d="M810.43,726.19c0,19.3-15.32,34.62-35.21,34.62H757.1V794.7H736.77V691.57h38.45C795.11,691.57,810.43,706.89,810.43,726.19Zm-20.18,0c0-9-6.34-15.62-15-15.62H757.1v31.24h18.12C783.91,741.81,790.25,735,790.25,726.19Z"/><path class="cls-2" d="M858.25,758.89H842.78V794.7H822.45V691.57H863.7A34.23,34.23,0,0,1,898,725.75c0,13-8.11,24.6-19.89,30L901,794.7H879Zm-15.47-17.82H863.7c7.66,0,14-6.78,14-15.32s-6.34-15.18-14-15.18H842.78Z"/><path class="cls-2" d="M934.11,691.57V794.7H913.78V691.57Z"/><path class="cls-2" d="M948.9,743.13c0-30.2,23.72-53.63,53.48-53.63a53.63,53.63,0,1,1-53.48,53.63Zm86.78,0c0-19.89-14.59-33.89-33.3-33.89s-33.29,14-33.29,33.89,14.58,33.74,33.29,33.74S1035.68,762.87,1035.68,743.13Z"/><path class="cls-2" d="M1106.59,758.89h-15.47V794.7h-20.33V691.57H1112a34.23,34.23,0,0,1,34.33,34.18c0,13-8.1,24.6-19.89,30l22.84,38.9h-22Zm-15.47-17.82H1112c7.66,0,14-6.78,14-15.32s-6.34-15.18-14-15.18h-20.92Z"/><path class="cls-2" d="M1182.45,691.57V794.7h-20.33V691.57Z"/><path class="cls-2" d="M1293.24,743.13c0,29-21.21,51.57-49.65,51.57h-41V691.57h41C1272,691.57,1293.24,714.11,1293.24,743.13Zm-19.45,0c0-19-12.37-32.11-30.2-32.11H1223v64.23h20.63C1261.42,775.25,1273.79,762.14,1273.79,743.13Z"/><path class="cls-2" d="M1363.39,776.13h-41.1l-6.19,18.57h-21.95l36.09-103.13h25.19l36.25,103.13h-22.1Zm-6.33-19L1342.91,715l-14.14,42.14Z"/><path class="cls-2" d="M1491.88,743.13c0,29-21.21,51.57-49.65,51.57h-41V691.57h41C1470.67,691.57,1491.88,714.11,1491.88,743.13Zm-19.45,0c0-19-12.37-32.11-30.2-32.11H1421.6v64.23h20.63C1460.06,775.25,1472.43,762.14,1472.43,743.13Z"/><path class="cls-2" d="M579.86,442A98.32,98.32,0,0,1,506.3,278.39,873.53,873.53,0,0,0,388.89,270c-114,0-219,28-219,28V566.76c0,97.39,219,243.24,219,243.24s219-145.89,219-243.24V437.89A98.29,98.29,0,0,1,579.86,442Z"/><circle class="cls-1" cx="580.07" cy="343.63" r="73.63"/><polygon class="cls-3" points="625.53 331.08 592.42 331.08 592.42 297.95 567.32 297.95 567.32 331.08 534.18 331.08 534.18 356.16 567.32 356.16 567.32 389.3 592.42 389.3 592.42 356.16 625.53 356.16 625.53 331.08"/><path class="cls-3" d="M389.64,625.31l54.24,18.75-1.21-8.66L401,606.55s10-99.43,8.84-99.81l114,36.59v-19L411.19,446.29c-.34-73.69-9.74-93.64-21.37-93.69s-21.14,19.76-22.23,93.45L254,522.58v18.88L368.35,506.4l7.88,100-42,28.37L333,643.36Z"/></svg>