<svg xmlns="http://www.w3.org/2000/svg" width="122" height="32.874" viewBox="0 0 122 32.874">
  <path id="Trazado_216" data-name="Trazado 216" d="M266.453,706.138a.921.921,0,0,1-.831.825h-4.589a.919.919,0,0,1-.831-.825V675.695s0-1.028.955-1.028H265.5a.962.962,0,0,1,.953.987Zm-59.172-5.428a5.555,5.555,0,1,0-5.556-5.555,5.561,5.561,0,0,0,5.556,5.555m13.456,0s.609,0,.609,1.419v3.632a1.051,1.051,0,0,1-1.013,1.2h-.03a7.04,7.04,0,0,1-5.725-2.536,11.805,11.805,0,1,1-1.741-19.684v-9.048s0-1.026.954-1.026h4.343a.959.959,0,0,1,.952.985v23.8c.059,1.253.727,1.253,1.216,1.253h.434m13.8-11.11a5.555,5.555,0,1,1-5.556,5.555,5.562,5.562,0,0,1,5.556-5.555m0,17.363a11.807,11.807,0,1,0-11.808-11.808,11.821,11.821,0,0,0,11.808,11.808m21.355-31.31a.962.962,0,0,0-.953-.987H250.6c-.955,0-.955,1.028-.955,1.028v30.443a.919.919,0,0,0,.831.825h4.589a.921.921,0,0,0,.831-.825Zm25.651,25.057a5.555,5.555,0,1,0-5.558-5.555,5.56,5.56,0,0,0,5.558,5.555m13.427,0s.635,0,.635,1.419v3.617a1.082,1.082,0,0,1-1.04,1.216,7.049,7.049,0,0,1-5.727-2.535,11.8,11.8,0,1,1-7.3-21.079c.237,0,.471.007.7.022l.012,0a7.356,7.356,0,0,1,4.84,2.524v-2.191s.012-1.053.966-1.053h4.326c.954,0,.958,1.086.958,1.086v15.719c.058,1.253.727,1.253,1.218,1.253h.4M311.9,689.688a1.42,1.42,0,0,0,1.424-.818l1.533-3.951a.762.762,0,0,0-.458-1.034,11.755,11.755,0,0,0-5.613-.347A5.173,5.173,0,0,0,305.333,687v-3.241s-.122-1.031-.988-1.1H300.22c-.955,0-1.136,1.062-1.136,1.062v22.325a.95.95,0,0,0,.844.921h4.551c.847-.074.849-1.021.849-1.021l.006-.006V695.155a5.562,5.562,0,0,1,5.556-5.555,5.642,5.642,0,0,1,1.013.092Zm5.573,13.895a3.958,3.958,0,1,0-3.958,3.958,3.958,3.958,0,0,0,3.958-3.958" transform="translate(-195.476 -674.667)" fill="#c7001e"/>
</svg>
