<svg xmlns="http://www.w3.org/2000/svg" width="70.482" height="80" viewBox="0 0 70.482 80"><defs><style>.a{fill:#ffcc24;}</style></defs><path class="a" d="M191.751,166.548a1.249,1.249,0,0,0-.45-.015,2.983,2.983,0,0,1-2.639-2.958,1.312,1.312,0,1,0-2.624,0,5.614,5.614,0,0,0,4.128,5.405v1.312a1.312,1.312,0,0,0,2.624,0V169.06a5.6,5.6,0,0,0-1.148-11.088,2.979,2.979,0,1,1,2.979-2.979,1.312,1.312,0,0,0,2.624,0,5.614,5.614,0,0,0-4.456-5.485v-1.194a1.312,1.312,0,0,0-2.624,0v1.274a5.6,5.6,0,0,0,1.476,11.009,2.978,2.978,0,0,1,.109,5.953Zm0,0" transform="translate(-155.581 -122.888)"/><path class="a" d="M104.195,125.521a19.029,19.029,0,1,0,19.029-19.029A19.029,19.029,0,0,0,104.195,125.521Zm19.029-16.4a16.4,16.4,0,1,1-16.4,16.4A16.4,16.4,0,0,1,123.224,109.116Zm0,0" transform="translate(-87.163 -89.024)"/><path class="a" d="M61.918,331.584l-10.279,4.857a8.373,8.373,0,0,0-7.138-4.4l-9.489-.261a10.022,10.022,0,0,1-4.313-1.114l-.966-.5a17.032,17.032,0,0,0-15.776.017l.06-2.187a1.312,1.312,0,0,0-1.276-1.348l-10.406-.286a1.312,1.312,0,0,0-1.347,1.276L.36,350.467a1.312,1.312,0,0,0,1.276,1.348l10.406.286h.036a1.312,1.312,0,0,0,1.312-1.276l.03-1.092,2.7-1.447a4.637,4.637,0,0,1,3.461-.379l16.143,4.531c.028.008.056.015.085.021a17.279,17.279,0,0,0,3.548.366,17.509,17.509,0,0,0,7.314-1.6,1.219,1.219,0,0,0,.163-.09L70.242,336a1.313,1.313,0,0,0,.43-1.748,6.629,6.629,0,0,0-8.754-2.667ZM3.02,349.228l.556-20.211,7.782.214L10.8,349.442Zm42.471-.343a14.878,14.878,0,0,1-9.1,1.016l-16.1-4.519a7.256,7.256,0,0,0-5.409.591l-1.381.74.37-13.438a14.424,14.424,0,0,1,14.654-.782l.966.5A12.675,12.675,0,0,0,34.94,334.4l9.49.261a5.756,5.756,0,0,1,5.47,4.586l-14.135-.39a1.312,1.312,0,0,0-.072,2.624l15.6.429h.037a1.312,1.312,0,0,0,1.311-1.276,8.329,8.329,0,0,0-.127-1.7l10.543-4.982.031-.015a4.01,4.01,0,0,1,4.534.635Zm0,0" transform="translate(-0.36 -272.824)"/><path class="a" d="M214.827,13.778V1.312a1.312,1.312,0,0,0-2.624,0V13.778a1.312,1.312,0,0,0,2.624,0Zm0,0" transform="translate(-177.454 0)"/><path class="a" d="M274.828,47.217V41.312a1.312,1.312,0,0,0-2.624,0v5.905a1.312,1.312,0,0,0,2.624,0Zm0,0" transform="translate(-227.613 -33.439)"/><path class="a" d="M154.827,47.217V41.312a1.312,1.312,0,1,0-2.624,0v5.905a1.312,1.312,0,1,0,2.624,0Zm0,0" transform="translate(-127.296 -33.439)"/></svg>